<svg width="23" height="13" viewBox="0 0 23 13" fill="none" xmlns="http://www.w3.org/2000/svg">
<path d="M8 4V8H17.7602H23V4V-1.66887e-07H17.7602H8V4Z" fill="#6D6D6D"/>
<path d="M4.46389 2.2206C1.47799 2.42537 1.68543 2.39953 1.55977 2.56851C1.45405 2.71165 1.40419 2.83689 0.955407 4.05556C0.739992 4.64203 0.550506 5.12512 0.259296 5.8269C0.165551 6.05155 0.067816 6.29409 0.0438809 6.36367L0 6.4909L0.00398917 8.38948C0.00598376 9.44313 0.0179513 10.3497 0.0279242 10.4252C0.0498647 10.5922 0.129648 10.7433 0.225388 10.8069C0.321129 10.8686 0.480696 10.9083 0.696111 10.9242L0.875624 10.9381L0.901553 10.6976C0.973359 10.0057 1.21869 9.46103 1.6595 9.02366C1.87092 8.81492 2.07038 8.67178 2.33566 8.53858C3.15743 8.12904 4.21456 8.18073 5.00641 8.66979C5.24975 8.82287 5.58086 9.14294 5.74042 9.38349C6.00969 9.78508 6.16527 10.2523 6.20117 10.7592L6.21513 10.954H11.5367H14.8602V10.8288C14.8602 10.6598 14.9081 10.3517 14.966 10.1549C15.0976 9.70555 15.315 9.3497 15.676 8.99781C15.7758 8.9004 15.8575 8.81889 15.8575 8.81492C15.8575 8.81094 15.4481 8.80696 12.5021 8.80696H7.14661L7.14262 5.42134L7.13663 2.0377L4.46389 2.2206ZM5.06426 3.43331C5.05827 3.5844 5.04631 4.22852 5.04032 4.86469L5.02636 6.02371L4.96453 6.03365C4.6813 6.07938 1.27055 6.46108 1.1409 6.46108C0.875624 6.46108 0.803819 6.39548 0.829748 6.18276C0.835732 6.12908 1.02123 5.60623 1.24263 5.01976C1.46403 4.43329 1.67146 3.87266 1.70338 3.77127C1.77718 3.54265 1.83303 3.44126 1.91281 3.39553C2.00057 3.34384 2.17011 3.32794 3.29705 3.26035C3.85155 3.22655 4.40405 3.19076 4.52372 3.18281C4.64539 3.17287 4.81892 3.16492 4.91067 3.16293L5.07822 3.16094L5.06426 3.43331Z" fill="#6D6D6D"/>
<path d="M3.18734 8.83479C2.28978 9.00775 1.6176 9.69164 1.472 10.5803C1.41814 10.9103 1.44407 11.2085 1.55178 11.5504C1.86294 12.5246 2.88217 13.1449 3.88545 12.9699C4.71519 12.8268 5.36144 12.2403 5.58084 11.4312C5.64467 11.1966 5.66661 10.8526 5.6327 10.6161C5.50505 9.75326 4.86479 9.05546 4.01509 8.85666C3.81962 8.81094 3.37683 8.79901 3.18734 8.83479Z" fill="#6D6D6D"/>
<path d="M17.1939 8.82885C16.6713 8.91632 16.1687 9.21453 15.8555 9.62804C14.8961 10.8944 15.6142 12.6976 17.1839 12.9699C17.4093 13.0097 17.6108 13.0097 17.8441 12.9719C19.2583 12.7433 20.0342 11.2443 19.3979 9.96998C19.0987 9.36562 18.5442 8.95807 17.8621 8.83481C17.6866 8.80499 17.3654 8.80101 17.1939 8.82885Z" fill="#6D6D6D"/>
<path d="M19.1905 8.82685C19.1905 8.83281 19.2384 8.87655 19.2942 8.92426C19.8048 9.35367 20.1399 10.0435 20.1798 10.7493L20.1918 10.954H20.9816L20.7715 10.9521L21.6391 10.6479L22.5068 10.3417V10.1608C22.5068 10.0614 22.5048 9.72146 22.5008 9.40338L22.4968 8.82685L21.3427 8.82287C20.1579 8.81889 19.1885 8.82088 19.1905 8.82685Z" fill="#6D6D6D"/>
</svg>
