<svg width="28" height="13" viewBox="0 0 28 13" fill="none" xmlns="http://www.w3.org/2000/svg">
<path d="M4.8546 1.1158V6.7534L6.3858 4.2478C6.5018 4.0506 6.67 3.952 6.8904 3.952H10.4052C10.5212 3.952 10.6198 3.9926 10.701 4.0738C10.7822 4.155 10.8228 4.2478 10.8228 4.3522C10.8228 4.4566 10.7938 4.5494 10.7358 4.6306L8.352 8.0236L11.1708 12.3562C11.2172 12.4258 11.2404 12.5128 11.2404 12.6172C11.2404 12.71 11.1998 12.797 11.1186 12.8782C11.0374 12.9594 10.9388 13 10.8228 13H7.1688C6.9368 13 6.757 12.9014 6.6294 12.7042L4.8546 9.7462V12.5302C4.8546 12.6578 4.8082 12.768 4.7154 12.8608C4.6226 12.9536 4.5124 13 4.3848 13H1.3398C1.2122 13 1.102 12.9536 1.0092 12.8608C0.9164 12.768 0.87 12.6578 0.87 12.5302V1.1158C0.87 0.9882 0.9164 0.878 1.0092 0.7852C1.102 0.6924 1.2122 0.646 1.3398 0.646H4.3848C4.5124 0.646 4.6226 0.6924 4.7154 0.7852C4.8082 0.878 4.8546 0.9882 4.8546 1.1158ZM22.4329 6.8926C22.2474 6.8926 22.085 6.9622 21.9457 7.1014C21.8182 7.2406 21.7544 7.4494 21.7544 7.7278V12.5302C21.7544 12.6578 21.708 12.768 21.6152 12.8608C21.5223 12.9536 21.4121 13 21.2846 13H18.2222C18.0946 13 17.9844 12.9536 17.8915 12.8608C17.7987 12.768 17.7524 12.6578 17.7524 12.5302V7.8496C17.7524 7.2116 17.5203 6.8926 17.0563 6.8926C16.8591 6.8926 16.6909 6.968 16.5517 7.1188C16.4241 7.258 16.3603 7.4552 16.3603 7.7104V12.5302C16.3603 12.6578 16.3139 12.768 16.2212 12.8608C16.1283 12.9536 16.0181 13 15.8905 13H12.7585C12.6309 13 12.5207 12.9536 12.4279 12.8608C12.3351 12.768 12.2887 12.6578 12.2887 12.5302V4.4218C12.2887 4.2942 12.3351 4.184 12.4279 4.0912C12.5207 3.9984 12.6309 3.952 12.7585 3.952H15.6295C15.7572 3.952 15.8673 3.9984 15.9601 4.0912C16.053 4.184 16.0994 4.2942 16.0994 4.4218V4.996C16.3313 4.6944 16.6619 4.4218 17.0911 4.1782C17.5667 3.9114 18.1003 3.778 18.6919 3.778C19.9679 3.778 20.8263 4.2536 21.2672 5.2048C21.5456 4.7988 21.9284 4.4624 22.4156 4.1956C22.9028 3.9172 23.4074 3.778 23.9294 3.778C24.8689 3.778 25.6345 4.1086 26.2261 4.7698C26.8294 5.431 27.131 6.417 27.131 7.7278V12.5302C27.131 12.6578 27.0846 12.768 26.9918 12.8608C26.8989 12.9536 26.7888 13 26.6612 13H23.5988C23.4711 13 23.3609 12.9536 23.2682 12.8608C23.1754 12.768 23.129 12.6578 23.129 12.5302V7.8496C23.129 7.2116 22.897 6.8926 22.4329 6.8926Z" fill="#6D6D6D"/>
</svg>
