<svg width="320" height="270" viewBox="0 0 320 270" fill="none" xmlns="http://www.w3.org/2000/svg">
<path d="M51.212 150.001H224.997C233.281 150.001 239.997 143.285 239.997 135.001C239.997 126.717 233.281 120.001 224.997 120.001H51.212L70.606 100.607C76.464 94.749 76.464 85.252 70.606 79.394C64.749 73.536 55.251 73.536 49.393 79.394L4.395 124.393C4.044 124.744 3.712 125.112 3.398 125.496C3.261 125.663 3.142 125.84 3.013 126.011C2.848 126.231 2.678 126.446 2.525 126.675C2.385 126.884 2.264 127.101 2.136 127.315C2.013 127.521 1.884 127.722 1.771 127.934C1.653 128.154 1.554 128.38 1.448 128.604C1.344 128.823 1.235 129.039 1.142 129.263C1.052 129.482 0.978 129.705 0.899 129.927C0.812 130.167 0.72 130.404 0.646 130.649C0.579 130.871 0.53 131.096 0.474 131.321C0.411 131.57 0.341 131.818 0.291 132.072C0.24 132.331 0.209 132.593 0.172 132.854C0.14 133.077 0.097 133.297 0.075 133.523C0.027 134.007 0.002 134.494 0.001 134.98C0.001 134.987 0 134.995 0 135.002C0 135.009 0.001 135.017 0.001 135.024C0.002 135.511 0.027 135.997 0.075 136.482C0.097 136.705 0.139 136.922 0.17 137.143C0.208 137.407 0.239 137.671 0.291 137.933C0.341 138.185 0.41 138.429 0.473 138.676C0.53 138.903 0.58 139.132 0.648 139.357C0.721 139.598 0.812 139.831 0.896 140.067C0.977 140.293 1.051 140.52 1.143 140.742C1.234 140.962 1.341 141.173 1.443 141.388C1.551 141.617 1.653 141.848 1.773 142.073C1.883 142.278 2.008 142.473 2.127 142.672C2.258 142.893 2.383 143.116 2.527 143.331C2.673 143.55 2.836 143.755 2.993 143.966C3.129 144.147 3.255 144.334 3.4 144.51C3.699 144.874 4.016 145.223 4.347 145.558C4.363 145.574 4.376 145.592 4.392 145.608L49.392 190.609C52.322 193.538 56.16 195.003 59.999 195.003C63.837 195.002 67.677 193.538 70.605 190.61C76.463 184.752 76.463 175.255 70.606 169.397L51.212 150.001Z" fill="white"/>
<path d="M305.001 0H115.001C106.717 0 100.001 6.716 100.001 15V75C100.001 83.284 106.717 90 115.001 90C123.285 90 130.001 83.284 130.001 75V30H290.001V240.001H130.001V195C130.001 186.716 123.285 180 115.001 180C106.717 180 100.001 186.716 100.001 195V255.001C100.001 263.285 106.717 270.001 115.001 270.001H305.001C313.285 270.001 320.001 263.285 320.001 255.001V15C320.001 6.716 313.285 0 305.001 0Z" fill="white"/>
</svg>
