<svg width="166" height="54" viewBox="0 0 166 54" fill="none" xmlns="http://www.w3.org/2000/svg">
<path d="M7.48014 10.8818C7.99498 10.7935 8.53189 10.742 9.09086 10.7273C9.66454 10.6979 10.1205 10.6832 10.4589 10.6832C10.8266 10.6832 11.2605 10.6979 11.7607 10.7273C12.2755 10.742 12.7757 10.7935 13.2611 10.8818L17.6519 25.0693C17.7696 25.4077 17.9167 25.9004 18.0932 26.5477C18.2697 27.1949 18.4463 27.8862 18.6228 28.6217C18.814 29.3425 18.9832 30.0118 19.1303 30.6296C19.2774 31.2327 19.373 31.6667 19.4171 31.9314H19.6598C19.704 31.6667 19.7996 31.2327 19.9467 30.6296C20.0938 30.0118 20.2556 29.3425 20.4321 28.6217C20.6233 27.8862 20.8072 27.1949 20.9837 26.5477C21.1602 25.9004 21.3073 25.4077 21.425 25.0693L25.7938 10.8818C26.3381 10.7935 26.8529 10.742 27.3383 10.7273C27.8237 10.6979 28.243 10.6832 28.596 10.6832C28.9343 10.6832 29.383 10.6979 29.9419 10.7273C30.5009 10.742 31.0525 10.7935 31.5968 10.8818L33.9356 40.9338C33.612 41.0221 33.2443 41.0883 32.8324 41.1324C32.4205 41.1765 32.0381 41.1986 31.6851 41.1986C30.9643 41.1986 30.3023 41.1471 29.6992 41.0441L28.6181 24.4295C28.5739 23.6498 28.5298 22.7378 28.4857 21.6934C28.4415 20.649 28.3974 19.5899 28.3533 18.5161C28.3092 17.4423 28.2797 16.4715 28.265 15.6036H28.0223L21.756 36.3664C21.4176 36.4253 21.0425 36.4694 20.6307 36.4988C20.2188 36.5282 19.8437 36.5429 19.5054 36.5429C19.167 36.5429 18.7919 36.5282 18.3801 36.4988C17.9829 36.4694 17.6299 36.4253 17.321 36.3664L11.0546 15.6036H10.8119C10.7825 16.4715 10.7457 17.4423 10.7016 18.5161C10.6722 19.5899 10.6354 20.649 10.5913 21.6934C10.5471 22.7378 10.503 23.6498 10.4589 24.4295L9.35563 41.0441C8.75253 41.1471 8.07588 41.1986 7.32569 41.1986C6.97265 41.1986 6.5902 41.1765 6.17832 41.1324C5.78116 41.0883 5.43548 41.0221 5.14129 40.9338L7.48014 10.8818ZM53.2505 16.9716C53.5741 16.8833 53.9051 16.8245 54.2434 16.7951C54.5964 16.7657 54.92 16.751 55.2142 16.751C56.0233 16.751 56.7073 16.8466 57.2662 17.0378L57.4428 17.3026L49.8525 33.829V41C49.5142 41.0588 49.1612 41.103 48.7934 41.1324C48.4257 41.1618 48.0653 41.1765 47.7123 41.1765C47.4034 41.1765 47.043 41.1618 46.6311 41.1324C46.2192 41.103 45.8588 41.0588 45.5499 41V33.6304L37.9597 17.3026C38.9305 16.8466 39.8572 16.6186 40.7398 16.6186C41.8284 16.6186 42.6153 17.207 43.1007 18.3837L46.1457 25.1576C46.484 25.9813 46.7929 26.7904 47.0724 27.5847C47.3666 28.3643 47.6093 29.0998 47.8005 29.7912H48.0212C48.2565 29.041 48.5066 28.2613 48.7714 27.4523C49.0508 26.6433 49.3818 25.7828 49.7643 24.8707L53.2505 16.9716ZM66.5213 41C66.1683 41.0588 65.8006 41.103 65.4181 41.1324C65.0356 41.1618 64.6679 41.1765 64.3149 41.1765C63.9618 41.1765 63.5867 41.1618 63.1896 41.1324C62.7924 41.103 62.432 41.0588 62.1084 41V11.1245L62.3732 10.8597H79.6939C79.8557 11.3892 79.9366 11.9776 79.9366 12.6249C79.9366 13.9782 79.0982 14.6548 77.4213 14.6548H70.8239C69.1617 14.6548 67.7128 14.6328 66.4772 14.5886C66.4772 15.5006 66.4846 16.4126 66.4993 17.3246C66.514 18.2219 66.5213 19.1119 66.5213 19.9945V23.9882C66.8744 23.9882 67.22 23.9882 67.5584 23.9882C67.8967 23.9735 68.213 23.9661 68.5071 23.9661H77.3992C77.4727 24.2603 77.5242 24.5839 77.5537 24.9369C77.5831 25.2753 77.5978 25.5621 77.5978 25.7975C77.5978 26.0475 77.5831 26.3491 77.5537 26.7021C77.5242 27.0404 77.4727 27.3641 77.3992 27.673H68.5071C68.213 27.673 67.8967 27.673 67.5584 27.673C67.22 27.6582 66.8744 27.6435 66.5213 27.6288V41ZM98.9898 37.3373C98.9604 38.72 98.7324 39.6835 98.3058 40.2277C97.8792 40.772 97.1437 41.0441 96.0993 41.0441H85.8834C85.1332 41.0441 84.5227 40.8161 84.052 40.3601C83.596 39.8894 83.368 39.2348 83.368 38.3964V17.0378L83.6107 16.7951H85.3097C86.207 16.7951 86.8322 17.0084 87.1852 17.435C87.5382 17.8615 87.7148 18.5603 87.7148 19.5311V37.5138C88.9945 37.3961 90.2154 37.3373 91.3775 37.3373H98.9898ZM120.65 37.4035C120.65 38.7715 120.437 39.7203 120.011 40.2498C119.584 40.7646 118.871 41.0221 117.87 41.0221H106.419C105.654 41.0221 105.043 40.7941 104.587 40.3381C104.131 39.8673 103.903 39.2275 103.903 38.4184V17.1923L104.146 16.9495H119.944C120.003 17.2584 120.04 17.56 120.055 17.8542C120.069 18.1484 120.077 18.4205 120.077 18.6706C120.077 18.9059 120.047 19.1928 119.988 19.5311C119.944 19.8694 119.863 20.2078 119.746 20.5461H110.677C110.383 20.5461 110.008 20.5461 109.552 20.5461C109.096 20.5314 108.633 20.524 108.162 20.524C108.162 20.8476 108.169 21.1933 108.184 21.561C108.199 21.9288 108.206 22.3333 108.206 22.7746V27.0551C108.662 27.0404 109.111 27.0331 109.552 27.0331C110.008 27.0331 110.383 27.0331 110.677 27.0331H117.76C117.863 27.3126 117.922 27.6215 117.936 27.9598C117.966 28.2834 117.981 28.5555 117.981 28.7762C117.981 29.0263 117.966 29.3204 117.936 29.6588C117.922 29.9824 117.863 30.2839 117.76 30.5634H110.677C110.383 30.5634 110.008 30.5634 109.552 30.5634C109.111 30.5487 108.662 30.5414 108.206 30.5414V35.5942C108.206 35.9472 108.199 36.2855 108.184 36.6091C108.169 36.9328 108.162 37.2269 108.162 37.4917C108.544 37.4623 108.934 37.4402 109.331 37.4255C109.743 37.4108 110.229 37.4035 110.787 37.4035H120.65ZM143.103 37.4035C143.103 38.7715 142.89 39.7203 142.463 40.2498C142.036 40.7646 141.323 41.0221 140.323 41.0221H128.871C128.106 41.0221 127.496 40.7941 127.04 40.3381C126.584 39.8673 126.356 39.2275 126.356 38.4184V17.1923L126.599 16.9495H142.397C142.456 17.2584 142.492 17.56 142.507 17.8542C142.522 18.1484 142.529 18.4205 142.529 18.6706C142.529 18.9059 142.5 19.1928 142.441 19.5311C142.397 19.8694 142.316 20.2078 142.198 20.5461H133.13C132.835 20.5461 132.46 20.5461 132.004 20.5461C131.548 20.5314 131.085 20.524 130.614 20.524C130.614 20.8476 130.622 21.1933 130.636 21.561C130.651 21.9288 130.658 22.3333 130.658 22.7746V27.0551C131.114 27.0404 131.563 27.0331 132.004 27.0331C132.46 27.0331 132.835 27.0331 133.13 27.0331H140.212C140.315 27.3126 140.374 27.6215 140.389 27.9598C140.418 28.2834 140.433 28.5555 140.433 28.7762C140.433 29.0263 140.418 29.3204 140.389 29.6588C140.374 29.9824 140.315 30.2839 140.212 30.5634H133.13C132.835 30.5634 132.46 30.5634 132.004 30.5634C131.563 30.5487 131.114 30.5414 130.658 30.5414V35.5942C130.658 35.9472 130.651 36.2855 130.636 36.6091C130.622 36.9328 130.614 37.2269 130.614 37.4917C130.997 37.4623 131.387 37.4402 131.784 37.4255C132.196 37.4108 132.681 37.4035 133.24 37.4035H143.103ZM152.581 23.1276C152.581 22.6569 152.589 22.2303 152.603 21.8479C152.618 21.4507 152.626 21.0021 152.626 20.5019C152.346 20.5019 151.956 20.5093 151.456 20.524C150.971 20.5387 150.588 20.5461 150.309 20.5461H145.609C145.55 20.2372 145.506 19.9283 145.477 19.6194C145.447 19.3105 145.432 19.031 145.432 18.7809C145.432 18.5161 145.447 18.2219 145.477 17.8983C145.506 17.5747 145.55 17.2584 145.609 16.9495H163.768C163.842 17.1996 163.901 17.4864 163.945 17.8101C163.989 18.119 164.011 18.3837 164.011 18.6044C164.011 19.2369 163.842 19.7223 163.503 20.0607C163.18 20.3843 162.569 20.5461 161.672 20.5461H159.157C158.892 20.5461 158.509 20.5387 158.009 20.524C157.524 20.5093 157.149 20.5019 156.884 20.5019C156.884 21.0021 156.891 21.4507 156.906 21.8479C156.921 22.2303 156.928 22.6569 156.928 23.1276V41C156.649 41.0588 156.303 41.103 155.891 41.1324C155.479 41.1618 155.104 41.1765 154.766 41.1765C154.442 41.1765 154.074 41.1618 153.663 41.1324C153.251 41.103 152.89 41.0588 152.581 41V23.1276Z" fill="white"/>
<line x1="4.49995" y1="49.5124" x2="118.5" y2="49.5001" stroke="white" stroke-linecap="round"/>
<line x1="62.5" y1="4.5" x2="163.5" y2="4.50001" stroke="white" stroke-linecap="round"/>
</svg>
