<svg width="35" height="36" viewBox="0 0 35 36" fill="none" xmlns="http://www.w3.org/2000/svg">
<path d="M24.1954 0.0088342C21.1725 -0.110684 18.1108 0.982485 15.8025 3.2908C12.9217 6.17156 12.5462 9.61926 13.8595 12.8917L1.70881 25.0424C-0.569604 27.3208 -0.569604 31.0145 1.70881 33.2929C3.98723 35.5713 7.6809 35.5713 9.95932 33.2929L22.11 21.1422C25.3825 22.4555 28.8302 22.08 31.7109 19.1992C34.7887 16.1215 35.7027 11.7063 34.4687 7.8263L27.7139 14.5811L21.8792 13.1225L20.4206 7.28785L27.1754 0.533038C26.2054 0.224532 25.2031 0.0486737 24.1954 0.0088342ZM5.83407 26.2503C7.44588 26.2503 8.75137 27.5558 8.75137 29.1677C8.75137 30.7795 7.44588 32.085 5.83407 32.085C4.22225 32.085 2.91676 30.7795 2.91676 29.1677C2.91676 27.5558 4.22225 26.2503 5.83407 26.2503Z" fill="white"/>
</svg>
