<svg width="43" height="12" viewBox="0 0 43 12" fill="none" xmlns="http://www.w3.org/2000/svg">
<path d="M2.44336 0.46875L5.23242 7.42969L8.02148 0.46875H9.48047V9H8.35547V5.67773L8.46094 2.0918L5.66016 9H4.79883L2.00391 2.10938L2.11523 5.67773V9H0.990234V0.46875H2.44336ZM13.3711 7.41211L14.8477 2.66016H16.0078L13.459 9.97852C13.0645 11.0332 12.4375 11.5605 11.5781 11.5605L11.373 11.543L10.9688 11.4668V10.5879L11.2617 10.6113C11.6289 10.6113 11.9141 10.5371 12.1172 10.3887C12.3242 10.2402 12.4941 9.96875 12.627 9.57422L12.8672 8.92969L10.6055 2.66016H11.7891L13.3711 7.41211Z" fill="#767676"/>
<path d="M22.0547 5.51367H18.6797V9H16.9219V0.46875H22.4766V1.89258H18.6797V4.0957H22.0547V5.51367ZM25.1719 9H23.4727V0H25.1719V9ZM29.4902 9.11719C28.5605 9.11719 27.8027 8.83203 27.2168 8.26172C26.6348 7.69141 26.3438 6.93164 26.3438 5.98242V5.81836C26.3438 5.18164 26.4668 4.61328 26.7129 4.11328C26.959 3.60938 27.3066 3.22266 27.7559 2.95312C28.209 2.67969 28.7246 2.54297 29.3027 2.54297C30.1699 2.54297 30.8516 2.81641 31.3477 3.36328C31.8477 3.91016 32.0977 4.68555 32.0977 5.68945V6.38086H28.0605C28.1152 6.79492 28.2793 7.12695 28.5527 7.37695C28.8301 7.62695 29.1797 7.75195 29.6016 7.75195C30.2539 7.75195 30.7637 7.51562 31.1309 7.04297L31.9629 7.97461C31.709 8.33398 31.3652 8.61523 30.9316 8.81836C30.498 9.01758 30.0176 9.11719 29.4902 9.11719ZM29.2969 3.91406C28.9609 3.91406 28.6875 4.02734 28.4766 4.25391C28.2695 4.48047 28.1367 4.80469 28.0781 5.22656H30.4336V5.0918C30.4258 4.7168 30.3242 4.42773 30.1289 4.22461C29.9336 4.01758 29.6562 3.91406 29.2969 3.91406ZM35.9824 9.11719C35.0527 9.11719 34.2949 8.83203 33.709 8.26172C33.127 7.69141 32.8359 6.93164 32.8359 5.98242V5.81836C32.8359 5.18164 32.959 4.61328 33.2051 4.11328C33.4512 3.60938 33.7988 3.22266 34.248 2.95312C34.7012 2.67969 35.2168 2.54297 35.7949 2.54297C36.6621 2.54297 37.3438 2.81641 37.8398 3.36328C38.3398 3.91016 38.5898 4.68555 38.5898 5.68945V6.38086H34.5527C34.6074 6.79492 34.7715 7.12695 35.0449 7.37695C35.3223 7.62695 35.6719 7.75195 36.0938 7.75195C36.7461 7.75195 37.2559 7.51562 37.623 7.04297L38.4551 7.97461C38.2012 8.33398 37.8574 8.61523 37.4238 8.81836C36.9902 9.01758 36.5098 9.11719 35.9824 9.11719ZM35.7891 3.91406C35.4531 3.91406 35.1797 4.02734 34.9688 4.25391C34.7617 4.48047 34.6289 4.80469 34.5703 5.22656H36.9258V5.0918C36.918 4.7168 36.8164 4.42773 36.6211 4.22461C36.4258 4.01758 36.1484 3.91406 35.7891 3.91406ZM41.584 1.10156V2.66016H42.668V3.90234H41.584V7.06641C41.584 7.30078 41.6289 7.46875 41.7188 7.57031C41.8086 7.67188 41.9805 7.72266 42.2344 7.72266C42.4219 7.72266 42.5879 7.70898 42.7324 7.68164V8.96484C42.4004 9.06641 42.0586 9.11719 41.707 9.11719C40.5195 9.11719 39.9141 8.51758 39.8906 7.31836V3.90234H38.9648V2.66016H39.8906V1.10156H41.584Z" fill="#7BBDEB"/>
</svg>
